<svg data-v-423bf9ae="" xmlns="http://www.w3.org/2000/svg" viewBox="0 0 479 90" class="iconLeft"><!----><!----><!----><g data-v-423bf9ae="" id="e0cadd6d-18c9-4fad-bda7-4bf5c106fdfe" fill="black" transform="matrix(5.8479533195495605,0,0,5.8479533195495605,134.75367736816406,-0.7309959530830383)"><path d="M1.96 8.40C1.96 6.92 2.47 5.66 3.49 4.64C4.51 3.62 5.71 3.11 7.07 3.11C8.22 3.11 9.17 3.54 9.91 4.41L10.02 3.81C9.66 3.43 9.25 3.14 8.79 2.96C8.33 2.78 7.76 2.69 7.07 2.69C5.56 2.69 4.25 3.24 3.15 4.35C2.05 5.46 1.50 6.81 1.50 8.40C1.50 9.65 1.84 10.68 2.51 11.49C3.19 12.31 4.12 12.71 5.31 12.71C6.56 12.71 7.67 12.34 8.65 11.59L8.76 10.95C7.68 11.84 6.53 12.29 5.32 12.29C4.27 12.29 3.45 11.92 2.86 11.18C2.26 10.44 1.96 9.51 1.96 8.40ZM14.50 6.96L14.83 6.57C14.53 6.22 14.16 6.05 13.72 6.05C13.08 6.05 12.55 6.44 12.15 7.24L12.33 6.16L11.91 6.16L10.78 12.60L11.20 12.60L11.89 8.68C11.98 8.17 12.19 7.68 12.53 7.21C12.87 6.74 13.23 6.51 13.62 6.51C14.03 6.51 14.33 6.66 14.50 6.96ZM15.60 9.48L20.89 9.48C20.97 9.24 21.01 8.91 21.01 8.51C21.01 7.75 20.81 7.14 20.39 6.71C19.98 6.27 19.42 6.05 18.72 6.05C17.78 6.05 16.95 6.43 16.21 7.19C15.47 7.95 15.11 8.89 15.11 10.01C15.11 10.79 15.33 11.43 15.79 11.93C16.24 12.42 16.82 12.67 17.54 12.67C18.78 12.67 19.81 12.10 20.61 10.96L20.26 10.71C19.53 11.74 18.62 12.25 17.54 12.25C16.95 12.25 16.48 12.04 16.11 11.63C15.74 11.21 15.55 10.67 15.55 10.01C15.55 9.82 15.57 9.65 15.60 9.48ZM20.54 9.06L15.69 9.06C15.82 8.40 16.20 7.80 16.81 7.28C17.42 6.76 18.05 6.50 18.70 6.50C19.30 6.50 19.76 6.69 20.08 7.08C20.41 7.48 20.57 7.98 20.57 8.58C20.57 8.79 20.56 8.95 20.54 9.06ZM22.57 9.94C22.57 8.96 22.90 8.14 23.56 7.48C24.22 6.82 24.96 6.50 25.77 6.50C26.42 6.50 26.95 6.69 27.36 7.09C27.78 7.49 27.99 8.02 27.99 8.68C27.99 9.64 27.66 10.48 27.01 11.21C26.36 11.93 25.62 12.29 24.78 12.29C24.11 12.29 23.57 12.06 23.17 11.60C22.77 11.14 22.57 10.58 22.57 9.94ZM22.12 9.94C22.12 10.74 22.37 11.41 22.86 11.93C23.36 12.45 24.00 12.71 24.79 12.71C25.39 12.71 25.94 12.54 26.45 12.21C26.95 11.87 27.36 11.42 27.66 10.86L27.36 12.60L27.78 12.60L28.91 6.16L28.49 6.16L28.18 7.91C28.05 7.33 27.77 6.88 27.34 6.54C26.90 6.21 26.37 6.05 25.73 6.05C24.81 6.05 23.98 6.42 23.23 7.15C22.49 7.89 22.12 8.82 22.12 9.94ZM31.67 3.92L31.28 6.16L30.25 6.16L30.18 6.58L31.21 6.58L30.14 12.60L30.59 12.60L31.65 6.58L32.68 6.58L32.75 6.16L31.72 6.16L32.12 3.92ZM33.46 9.48L38.75 9.48C38.84 9.24 38.88 8.91 38.88 8.51C38.88 7.75 38.67 7.14 38.26 6.71C37.84 6.27 37.28 6.05 36.58 6.05C35.65 6.05 34.81 6.43 34.08 7.19C33.34 7.95 32.97 8.89 32.97 10.01C32.97 10.79 33.20 11.43 33.65 11.93C34.10 12.42 34.69 12.67 35.41 12.67C36.65 12.67 37.67 12.10 38.47 10.96L38.12 10.71C37.39 11.74 36.49 12.25 35.41 12.25C34.82 12.25 34.34 12.04 33.97 11.63C33.60 11.21 33.42 10.67 33.42 10.01C33.42 9.82 33.43 9.65 33.46 9.48ZM38.40 9.06L33.56 9.06C33.69 8.40 34.06 7.80 34.67 7.28C35.28 6.76 35.91 6.50 36.57 6.50C37.17 6.50 37.63 6.69 37.95 7.08C38.27 7.48 38.43 7.98 38.43 8.58C38.43 8.79 38.42 8.95 38.40 9.06ZM40.25 12.36C40.25 12.64 40.39 12.78 40.67 12.78C40.95 12.78 41.09 12.64 41.09 12.36C41.09 12.08 40.95 11.94 40.67 11.94C40.39 11.94 40.25 12.08 40.25 12.36ZM45.28 6.16L44.14 12.60L44.56 12.60L45.70 6.16ZM45.63 3.15C45.63 3.26 45.66 3.36 45.74 3.43C45.81 3.50 45.91 3.54 46.02 3.54C46.13 3.54 46.22 3.50 46.30 3.43C46.37 3.36 46.41 3.26 46.41 3.15C46.41 3.04 46.37 2.94 46.30 2.87C46.22 2.80 46.13 2.76 46.02 2.76C45.91 2.76 45.81 2.80 45.74 2.87C45.66 2.94 45.63 3.04 45.63 3.15ZM47.21 6.16L48.82 12.95L52.81 6.16L52.29 6.16L48.96 12.01L47.67 6.16ZM53.44 9.48L58.73 9.48C58.81 9.24 58.86 8.91 58.86 8.51C58.86 7.75 58.65 7.14 58.23 6.71C57.82 6.27 57.26 6.05 56.56 6.05C55.63 6.05 54.79 6.43 54.05 7.19C53.32 7.95 52.95 8.89 52.95 10.01C52.95 10.79 53.17 11.43 53.63 11.93C54.08 12.42 54.67 12.67 55.38 12.67C56.63 12.67 57.65 12.10 58.45 10.96L58.10 10.71C57.37 11.74 56.47 12.25 55.38 12.25C54.80 12.25 54.32 12.04 53.95 11.63C53.58 11.21 53.40 10.67 53.40 10.01C53.40 9.82 53.41 9.65 53.44 9.48ZM58.38 9.06L53.54 9.06C53.67 8.40 54.04 7.80 54.65 7.28C55.26 6.76 55.89 6.50 56.55 6.50C57.14 6.50 57.60 6.69 57.93 7.08C58.25 7.48 58.41 7.98 58.41 8.58C58.41 8.79 58.40 8.95 58.38 9.06Z"></path></g><!----><g data-v-423bf9ae="" id="3dec3a5d-f8ba-4e03-9673-e544dd75a41f" transform="matrix(3.860175848007202,0,0,3.860175848007202,0.23718643188476562,-16.421743392944336)" stroke="none" fill="black"><path d="M12.289 5.343v19.9L1 13.954V5.343h11.289m1-1H0v10.026l13.289 13.289V4.343zM31 5.343v8.612L19.711 25.243v-19.9H31m1-1H18.711v23.315L32 14.369V4.343z"></path></g><!----></svg>